<svg width="105.425px" height="129.2px" xmlns="http://www.w3.org/2000/svg" viewBox="197.2875 10.400000000000006 105.425 129.2" style="background: none;" preserveAspectRatio="xMidYMid"><defs><filter id="editing-jagged" x="-100%" y="-100%" width="300%" height="300%"><feTurbulence result="turb" baseFrequency="0.1" numOctaves="1" seed="1"></feTurbulence><feDisplacementMap in="SourceGraphic" in2="turb" scale="10"></feDisplacementMap></filter></defs><g filter="url(#editing-jagged)"><g transform="translate(218.1400158405304, 91.40999984741211)"><path d="M26.69-16.69L26.69-16.69L26.59-10.69L26.59-10.69Q26.59-5.09 27.63-3.06L27.63-3.06L27.63-3.06Q28.25-1.84 29.09-1.19L29.09-1.19L30.56 0L21.50 0L20.53-3.63L20.53-3.63Q17 0.63 10.47 0.63L10.47 0.63L10.47 0.63Q6.75 0.63 4.47-1.88L4.47-1.88L4.47-1.88Q2.47-4.13 2.47-7.19L2.47-7.19L2.47-7.19Q2.47-10.25 3.92-12.53L3.92-12.53L3.92-12.53Q5.38-14.81 7.75-16.31L7.75-16.31L7.75-16.31Q12.44-19.22 19.53-19.34L19.53-19.34L19.53-19.69L19.53-19.69Q19.53-27.28 17.19-28.59L17.19-28.59L17.19-28.59Q16.34-29.06 15.02-29.06L15.02-29.06L15.02-29.06Q13.69-29.06 12.38-28.19L12.38-28.19L12.38-28.19Q11.06-27.31 10-25.94L10-25.94L10-25.94Q7.88-23.16 6.97-19.38L6.97-19.38L6.97-19.38Q4.19-21.03 4.19-25.72L4.19-25.72L4.19-25.72Q4.19-27.63 4.69-30L4.69-30L4.69-30Q5.88-30 6.94-30.34L6.94-30.34L9.34-31.09L9.34-31.09Q12.88-32.19 16.25-32.19L16.25-32.19L16.25-32.19Q19.63-32.19 21.64-31.19L21.64-31.19L21.64-31.19Q23.66-30.19 24.78-28.22L24.78-28.22L24.78-28.22Q26.69-24.88 26.69-16.69ZM9.22-6.56L9.22-6.56Q9.22-4.63 10.11-3.56L10.11-3.56L10.11-3.56Q11-2.50 12.34-2.50L12.34-2.50L12.34-2.50Q13.69-2.50 14.94-3.20L14.94-3.20L14.94-3.20Q16.19-3.91 17.19-5.13L17.19-5.13L17.19-5.13Q19.53-7.91 19.53-11.66L19.53-11.66L19.53-16.28L19.53-16.28Q15.16-15.88 12.31-13.38L12.31-13.38L12.31-13.38Q9.22-10.69 9.22-6.56L9.22-6.56ZM51.72-26.13L51.72-26.13L51.72-26.13Q52-27.38 52-28.55L52-28.55L52-28.55Q52-29.72 51.41-31.56L51.41-31.56L60.63-31.56L60.63-31.56Q59.31-29.69 58.97-29.19L58.97-29.19L51.72-17.94L50.56-15.97L50.56-15.97Q54.97-9.19 56.59-6.88L56.59-6.88L58.78-3.75L58.78-3.75Q59.31-2.94 59.69-2.31L59.69-2.31L60.41-1.19L60.41-1.19Q60.75-0.69 61.25 0L61.25 0L48.28 0L48.28 0Q48.63-0.97 48.98-1.88L48.98-1.88L48.98-1.88Q49.34-2.78 49.34-3.80L49.34-3.80L49.34-3.80Q49.34-4.81 48.94-5.97L48.94-5.97L48.94-5.97Q48.53-7.13 47.91-8.34L47.91-8.34L47.91-8.34Q47.28-9.56 46.56-10.75L46.56-10.75L45.22-12.97L45.22-12.97Q41.38-7.53 41.38-3.69L41.38-3.69L41.38-3.69Q41.38-2.44 42.19 0L42.19 0L32.66 0L40.25-12.66L40.25-12.66Q41.81-15.19 42.72-17.06L42.72-17.06L42.72-17.06Q38.97-23.16 37.69-25.06L37.69-25.06L37.69-25.06Q34.59-29.75 34.22-30.25L34.22-30.25L33.34-31.56L46.31-31.56L46.31-31.56Q45.50-29.13 45.50-27.41L45.50-27.41L45.50-27.41Q45.50-24.59 48.34-19.63L48.34-19.63L48.34-19.63Q50.81-22.38 51.72-26.13Z" fill="#444"></path></g></g><style>text {
  font-size: 64px;
  font-family: Arial Black;
  dominant-baseline: central;
  text-anchor: middle;
}</style></svg>